<svg width="16" height="16" viewBox="0 0 16 16" fill="none" xmlns="http://www.w3.org/2000/svg">
<path d="M7.19043 0.15625C7.47345 -0.126561 7.72097 0.0382749 7.80957 0.15625C8.66518 2.95912 10.4121 8.6889 10.5537 9.18457C10.6953 9.68014 10.6127 10.0401 10.5537 10.1582L9.04883 16H5.95117C5.62667 14.643 4.90636 11.6992 4.62305 10.7783C4.33998 9.85834 4.50505 9.09702 4.62305 8.83105L7.19043 0.15625ZM6.39355 0.421875C5.74447 2.57566 4.35795 7.16685 4.00391 8.2998C3.65009 9.43209 3.67933 10.1281 3.73828 10.335L5.24316 15.9111C4.67697 15.9819 4.18115 15.5875 4.00391 15.3809C3.1778 13.8467 1.47219 10.689 1.25977 10.335C1.04759 9.9809 1.17128 9.42054 1.25977 9.18457L6.39355 0.421875ZM13.7402 9.18457C13.8287 9.42053 13.9524 9.98089 13.7402 10.335C13.5278 10.689 11.8222 13.8467 10.9961 15.3809C10.8189 15.5875 10.3231 15.9819 9.75684 15.9111L11.2617 10.335C11.3207 10.128 11.3499 9.43203 10.9961 8.2998C10.642 7.16685 9.25553 2.57566 8.60645 0.421875L13.7402 9.18457Z" fill="#00ACE7"/>
<path d="M7.5 6.5L5 8V11L7.5 12.5L9.99929 11.0004L10 10.9992V8L7.5 6.5ZM7.5 7.07742L9.27786 8.144L8.797 8.4326L7.5 7.65477L6.20329 8.43282L5.722 8.144L7.5 7.07742ZM8.55679 8.86595V9.84537L7.74064 9.356V8.3765L8.55679 8.86595ZM7.25936 8.3765V9.35577L6.44343 9.8453V8.86595L7.25936 8.3765ZM7.25936 11.7783L5.48107 10.7114V8.5769L5.96207 8.8655V10.4226L7.25936 11.201V11.7783ZM6.68364 10.2783L7.49979 9.7886L8.31614 10.2783L7.5 10.7678L6.68364 10.2783ZM9.51893 10.7114L7.74064 11.7783V11.201L9.03786 10.4229V8.8655L9.51886 8.5769L9.51893 10.7114Z" fill="url(#paint0_linear_2028_13037)"/>
<defs>
<linearGradient id="paint0_linear_2028_13037" x1="5" y1="6.5" x2="595.164" y2="498.303" gradientUnits="userSpaceOnUse">
<stop stop-color="#2762EB"/>
<stop offset="1" stop-color="#9134EA"/>
</linearGradient>
</defs>
</svg>
